# Blender v2.79 (sub 0) OBJ File: 'character.blend'
# www.blender.org
o lowerLeg_Cube.007
v 0.116239 -0.402980 -0.049886
v -0.090295 -0.407990 -0.040817
v -0.084457 -0.386520 0.152936
v 0.021739 -0.397261 0.191317
v -0.082269 -0.159862 0.132705
v -0.082674 -0.249132 -0.013880
v 0.081680 -0.202114 0.127065
v 0.104400 -0.248220 -0.020799
v 0.094582 -0.407565 -0.321237
v -0.111952 -0.412575 -0.312168
v 0.147864 -0.240227 -0.359479
v -0.142894 -0.267914 -0.314273
v 0.028617 -0.420544 -0.054014
v -0.027703 -0.381063 0.204106
v 0.026104 -0.182927 -0.057828
v -0.023892 -0.179313 0.200292
v 0.006960 -0.425128 -0.325365
v 0.004447 -0.187512 -0.329179
v -0.096775 -0.398913 0.061324
v 0.089367 -0.395728 0.083184
v 0.146032 -0.179367 0.084954
v -0.095530 -0.170732 0.046512
v 0.003619 -0.418737 0.075046
v -0.154561 1.160200 0.309565
v 0.086715 1.066374 0.321223
v 0.159536 1.100485 0.071385
v -0.040931 1.112051 0.386140
v -0.188863 1.152832 0.194712
v -0.143720 1.159473 0.081647
v -0.127812 0.493348 0.228643
v 0.086657 0.417679 0.227103
v 0.143867 0.446088 0.037138
v -0.027586 0.454278 0.298619
v 0.024934 0.471563 -0.009825
v -0.162758 0.486050 0.133481
v 0.160107 0.439791 0.155314
v -0.118260 0.492760 0.040106
v 0.167971 1.091337 0.219497
v 0.020039 1.132118 0.028070
v -0.129664 -0.288218 0.148085
v 0.093354 -0.312280 0.185907
v 0.158245 -0.299001 -0.035454
v -0.116802 -0.303661 -0.028203
v 0.169149 -0.297297 -0.340470
v -0.157741 -0.315344 -0.314075
v 0.005704 -0.306320 -0.389037
v -0.022636 -0.298121 0.202199
v 0.147289 -0.298175 0.086861
v -0.142564 -0.301682 0.059417
v -0.112784 -0.258523 -0.164076
v 0.126132 -0.244223 -0.190139
v 0.105411 -0.405273 -0.185561
v -0.101124 -0.410283 -0.176492
v 0.017789 -0.422836 -0.189690
v 0.015276 -0.185219 -0.193504
v 0.163697 -0.298149 -0.187962
v -0.137272 -0.309502 -0.171139
vt 0.502222 0.076678
vt 0.503696 0.079456
vt 0.500574 0.084924
vt 0.505542 0.071795
vt 0.504218 0.071967
vt 0.502968 0.088495
vt 0.503458 0.080830
vt 0.506172 0.084685
vt 0.506816 0.074567
vt 0.510060 0.066610
vt 0.508643 0.081337
vt 0.506966 0.056617
vt 0.509268 0.039078
vt 0.506958 0.053880
vt 0.506710 0.079044
vt 0.512924 0.347979
vt 0.506006 0.335918
vt 0.511811 0.096978
vt 0.503152 0.328866
vt 0.502921 0.330621
vt 0.499750 0.103608
vt 0.506370 0.325936
vt 0.501687 0.342344
vt 0.506759 0.350307
vt 0.495346 0.104219
vt 0.499862 0.355671
vt 0.507812 0.028777
vt 0.506835 0.025811
vt 0.506907 0.034888
vt 0.506822 0.037817
vt 0.506816 0.023569
vt 0.507614 0.042894
vt 0.505743 0.043954
vt 0.505191 0.049679
vt 0.507391 0.035149
vt 0.506668 0.052869
vt 0.508304 0.048728
vt 0.507659 0.040562
vt 0.506797 0.058659
vt 0.507858 0.060716
vt 0.492807 0.094767
vt 0.504834 0.061322
vt 0.503620 0.066081
vt 0.529705 0.509242
vt 0.515065 0.484749
vt 0.479818 0.536474
vt 0.482852 0.582194
vt 0.496747 0.476242
vt 0.479818 0.494716
vt 0.529321 0.571706
vt 0.502854 0.641802
vt 0.505104 0.068874
vt 0.510839 0.094617
vt 0.505060 0.037939
vt 0.511776 0.071354
vt 0.504004 0.082172
vt 0.507185 0.000135
vn -0.8953 -0.4023 0.1913
vn -0.2121 -0.9642 0.1590
vn 0.1331 -0.0491 0.9899
vn 0.8558 -0.5111 0.0801
vn -0.4888 0.8713 0.0435
vn -0.3194 0.0687 -0.9451
vn 0.9906 -0.0070 -0.1365
vn 0.4957 -0.1304 0.8586
vn -0.9294 -0.1162 0.3502
vn -0.3986 -0.2053 -0.8939
vn 0.1965 -0.9805 0.0009
vn -0.9286 -0.3409 0.1469
vn 0.8195 0.5722 0.0325
vn -0.1022 -0.9944 0.0250
vn 0.2846 -0.3483 -0.8931
vn -0.6057 -0.1568 0.7801
vn 0.3790 0.0684 -0.9229
vn 0.4704 0.8809 -0.0524
vn -0.4571 -0.1671 0.8736
vn 0.2443 -0.9597 0.1392
vn 0.1915 -0.9772 0.0919
vn -0.9012 -0.0350 -0.4320
vn 0.7103 -0.0954 0.6974
vn 0.7949 -0.4857 0.3637
vn -0.1057 -0.9944 -0.0066
vn -0.8746 -0.4167 -0.2477
vn 0.7877 -0.0698 0.6121
vn -0.9287 -0.0023 -0.3709
vn 0.3078 0.0568 -0.9498
vn -0.5894 -0.1206 0.7988
vn -0.9543 -0.0734 0.2897
vn 0.4185 -0.1114 0.9013
vn 0.9983 -0.0064 -0.0572
vn -0.3034 0.0477 -0.9517
vn -0.8297 0.2488 -0.4996
vn 0.5427 0.0192 0.8397
vn -0.6668 0.3265 0.6699
vn -0.0234 0.4496 -0.8929
vn 0.8761 -0.4781 -0.0618
vn -0.8988 0.4103 0.1545
vn -0.3172 0.4240 -0.8483
vn 0.9296 0.0039 -0.3685
vn 0.5726 0.0192 0.8196
vn -0.9297 0.3550 0.0983
vn -0.8554 0.4985 0.1403
vn 0.9253 -0.3781 0.0310
vn 0.6100 0.7864 0.0968
vn 0.6974 0.7088 0.1062
vn -0.9542 -0.2603 0.1473
vn -0.5053 0.8617 0.0474
vn -0.8919 -0.4165 0.1763
vn -0.1315 -0.9597 0.2482
vn 0.2525 0.0068 0.9676
vn 0.8979 -0.3909 0.2026
vn -0.4771 0.8786 0.0232
vn -0.3989 0.0475 -0.9158
vn 0.9354 -0.0237 -0.3528
vn 0.5442 -0.1379 0.8275
vn -0.9785 -0.1221 0.1659
vn -0.1462 -0.4685 -0.8713
vn -0.9025 -0.4234 0.0792
vn 0.9149 0.3833 0.1265
vn 0.1348 -0.4669 -0.8740
vn -0.7672 -0.1027 0.6331
vn 0.4594 0.0479 -0.8869
vn 0.3568 0.9317 0.0678
vn -0.6716 0.0580 0.7387
vn -0.2538 -0.9433 0.2138
vn 0.2531 -0.9654 0.0625
vn -0.9858 -0.0354 -0.1640
vn 0.5755 -0.1348 0.8066
vn 0.7031 -0.5650 0.4317
vn -0.2029 -0.9764 0.0739
vn -0.9696 -0.2415 -0.0400
vn 0.7108 -0.1011 0.6961
vn -0.9025 -0.0076 -0.4306
vn 0.3743 0.0395 -0.9265
vn -0.5989 -0.1176 0.7922
vn -0.9348 -0.0686 0.3485
vn 0.4975 -0.1246 0.8585
vn 0.9904 -0.0165 -0.1370
vn -0.3220 0.0518 -0.9453
vn -0.7915 0.5598 -0.2453
vn 0.8029 0.3448 0.4863
vn -0.4505 0.0096 0.8927
vn 0.2892 -0.2037 -0.9354
vn 0.8302 -0.5568 0.0266
vn -0.9469 0.2969 0.1235
vn -0.4193 0.1275 -0.8989
vn 0.6932 0.7185 0.0572
vn 0.1791 0.4782 0.8598
vn -0.9352 0.3441 0.0838
vn -0.9017 0.4176 0.1121
vn -0.9369 -0.3403 0.0805
vn -0.4924 0.8700 0.0246
s off
f 49/1/1 3/2/1 40/3/1
f 23/4/2 3/2/2 19/5/2
f 47/6/3 4/7/3 41/8/3
f 20/9/4 42/10/4 48/11/4
f 55/12/5 12/13/5 50/14/5
f 15/15/6 37/16/6 34/17/6
f 21/18/7 32/19/7 36/20/7
f 16/21/8 31/22/8 33/23/8
f 35/24/9 5/25/9 30/26/9
f 46/27/10 10/28/10 45/29/10
f 54/30/11 9/31/11 52/32/11
f 45/29/12 53/33/12 57/34/12
f 44/35/13 51/36/13 56/37/13
f 10/28/14 54/30/14 53/33/14
f 9/31/15 46/27/15 44/35/15
f 5/25/16 33/23/16 30/26/16
f 32/19/17 15/15/17 34/17/17
f 51/36/18 18/38/18 55/12/18
f 3/2/19 47/6/19 40/3/19
f 4/7/20 23/4/20 20/9/20
f 20/9/21 13/39/21 1/40/21
f 37/16/22 22/41/22 35/24/22
f 31/22/23 21/18/23 36/20/23
f 41/8/24 20/9/24 48/11/24
f 23/4/25 2/42/25 13/39/25
f 43/43/26 19/5/26 49/1/26
f 25/44/27 36/20/27 38/45/27
f 29/46/28 35/24/28 28/47/28
f 26/48/29 34/17/29 39/49/29
f 30/26/30 27/50/30 24/51/30
f 28/47/31 30/26/31 24/51/31
f 33/23/32 25/44/32 27/50/32
f 36/20/33 26/48/33 38/45/33
f 39/49/34 37/16/34 29/46/34
f 6/52/35 49/1/35 22/41/35
f 7/53/36 48/11/36 21/18/36
f 40/3/37 16/21/37 5/25/37
f 11/54/38 46/27/38 18/38/38
f 9/31/39 56/37/39 52/32/39
f 12/13/40 57/34/40 50/14/40
f 46/27/41 12/13/41 18/38/41
f 48/11/42 8/55/42 21/18/42
f 47/6/43 7/53/43 16/21/43
f 22/41/44 40/3/44 5/25/44
f 50/14/45 43/43/45 6/52/45
f 1/40/46 56/37/46 42/10/46
f 51/36/47 15/15/47 8/55/47
f 53/33/14 13/39/14 2/42/14
f 42/10/48 51/36/48 8/55/48
f 57/34/49 2/42/49 43/43/49
f 13/39/11 52/32/11 1/40/11
f 15/15/50 50/14/50 6/52/50
f 49/1/51 19/5/51 3/2/51
f 23/4/52 14/56/52 3/2/52
f 47/6/53 14/56/53 4/7/53
f 20/9/54 1/40/54 42/10/54
f 55/12/55 18/38/55 12/13/55
f 15/15/56 6/52/56 37/16/56
f 21/18/57 8/55/57 32/19/57
f 16/21/58 7/53/58 31/22/58
f 35/24/59 22/41/59 5/25/59
f 46/27/60 17/57/60 10/28/60
f 54/30/11 17/57/11 9/31/11
f 45/29/61 10/28/61 53/33/61
f 44/35/62 11/54/62 51/36/62
f 10/28/14 17/57/14 54/30/14
f 9/31/63 17/57/63 46/27/63
f 5/25/64 16/21/64 33/23/64
f 32/19/65 8/55/65 15/15/65
f 51/36/66 11/54/66 18/38/66
f 3/2/67 14/56/67 47/6/67
f 4/7/68 14/56/68 23/4/68
f 20/9/69 23/4/69 13/39/69
f 37/16/70 6/52/70 22/41/70
f 31/22/71 7/53/71 21/18/71
f 41/8/72 4/7/72 20/9/72
f 23/4/73 19/5/73 2/42/73
f 43/43/74 2/42/74 19/5/74
f 25/44/75 31/22/75 36/20/75
f 29/46/76 37/16/76 35/24/76
f 26/48/77 32/19/77 34/17/77
f 30/26/78 33/23/78 27/50/78
f 28/47/79 35/24/79 30/26/79
f 33/23/80 31/22/80 25/44/80
f 36/20/81 32/19/81 26/48/81
f 39/49/82 34/17/82 37/16/82
f 6/52/83 43/43/83 49/1/83
f 7/53/84 41/8/84 48/11/84
f 40/3/85 47/6/85 16/21/85
f 11/54/86 44/35/86 46/27/86
f 9/31/87 44/35/87 56/37/87
f 12/13/88 45/29/88 57/34/88
f 46/27/89 45/29/89 12/13/89
f 48/11/90 42/10/90 8/55/90
f 47/6/91 41/8/91 7/53/91
f 22/41/92 49/1/92 40/3/92
f 50/14/93 57/34/93 43/43/93
f 1/40/39 52/32/39 56/37/39
f 51/36/18 55/12/18 15/15/18
f 53/33/14 54/30/14 13/39/14
f 42/10/13 56/37/13 51/36/13
f 57/34/94 53/33/94 2/42/94
f 13/39/11 54/30/11 52/32/11
f 15/15/95 55/12/95 50/14/95
