# Blender v2.79 (sub 0) OBJ File: 'character.blend'
# www.blender.org
o lowerLarm_Cube.004
v 0.166537 -0.357780 -0.015751
v 0.022696 -0.386959 -0.068722
v 0.165831 -0.353169 0.061556
v -0.001918 -0.391444 0.043120
v 0.095860 -0.373746 -0.052505
v 0.095860 -0.373746 0.082985
v -0.108335 0.287069 0.079886
v 0.040680 0.319848 0.093377
v -0.023653 0.302405 -0.082406
v -0.023653 0.302405 0.109058
v -0.090323 0.290351 -0.060391
v 0.041197 0.316473 -0.055511
v -0.034447 -0.045072 0.072993
v 0.098237 -0.015440 0.086058
v 0.041748 -0.031276 -0.072585
v 0.041748 -0.031276 0.101244
v -0.017003 -0.041893 -0.051265
v 0.098737 -0.018708 -0.046538
v -0.017422 -0.394322 0.014129
v 0.209142 -0.353169 0.014129
v 0.095860 -0.429137 0.014129
v 0.072373 0.319847 0.013326
v -0.119680 0.284963 0.013326
v 0.128930 -0.015440 0.014330
v -0.045434 -0.047111 0.014330
v -0.200476 0.569707 0.112279
v 0.014613 0.616116 0.129617
v -0.079856 0.591558 -0.119802
v -0.079856 0.591558 0.149770
v -0.177328 0.573925 -0.091509
v 0.015277 0.611779 -0.085237
v -0.215056 0.567000 0.014984
v 0.055344 0.616116 0.014984
v -0.053364 -0.112277 0.051080
v 0.130355 -0.071101 0.069516
v 0.052399 -0.093128 -0.060466
v 0.052399 -0.093128 0.090945
v -0.038446 -0.107791 -0.076683
v 0.131061 -0.075712 -0.023712
v 0.173666 -0.071101 0.014128
v -0.078564 -0.115155 0.014128
v -0.038326 -0.193880 0.048753
v 0.140725 -0.153552 0.067189
v 0.065103 -0.175155 -0.058139
v 0.065103 -0.175155 0.088618
v 0.184036 -0.153552 0.014128
v -0.063526 -0.196758 0.014128
v -0.023408 -0.189394 -0.074356
v 0.141430 -0.158163 -0.021385
v -0.150217 -0.204572 -0.123098
v -0.161395 -0.143915 -0.124828
v -0.191216 -0.149389 -0.057326
v -0.180037 -0.210046 -0.057326
v -0.118543 -0.209111 -0.015846
v -0.133581 -0.127508 -0.015846
v -0.093463 -0.120144 -0.106657
v -0.078425 -0.201747 -0.104330
vt 0.188841 0.420284
vt 0.188841 0.420284
vt 0.188841 0.420284
vt 0.188841 0.420284
vt 0.188841 0.420284
vt 0.188841 0.420284
vt 0.188841 0.420284
vt 0.188841 0.420284
vt 0.188841 0.420284
vt 0.188841 0.420284
vt 0.188841 0.420284
vt 0.188841 0.420284
vt 0.188841 0.420284
vt 0.188841 0.420284
vt 0.188841 0.420284
vt 0.188841 0.420284
vt 0.188885 0.420295
vt 0.188842 0.420286
vt 0.188845 0.420285
vt 0.188836 0.420285
vt 0.188817 0.420323
vt 0.188787 0.420300
vt 0.188864 0.420247
vt 0.188841 0.420283
vt 0.188832 0.420248
vt 0.188796 0.420272
vt 0.188888 0.420268
vt 0.188843 0.420282
vt 0.188841 0.420284
vt 0.188837 0.420284
vt 0.188841 0.420285
vt 0.188839 0.420287
vt 0.188841 0.420284
vt 0.188845 0.420283
vt 0.188841 0.420285
vt 0.188841 0.420284
vt 0.188841 0.420284
vt 0.188841 0.420284
vt 0.188841 0.420285
vt 0.188841 0.420285
vt 0.188841 0.420284
vt 0.188841 0.420284
vt 0.188841 0.420284
vt 0.188841 0.420284
vt 0.188841 0.420285
vt 0.188841 0.420284
vt 0.188841 0.420284
vt 0.188841 0.420284
vt 0.188841 0.420284
vt 0.188841 0.420284
vt 0.188841 0.420284
vt 0.188841 0.420284
vt 0.188841 0.420284
vt 0.188841 0.420284
vt 0.188841 0.420284
vt 0.188858 0.420319
vt 0.188841 0.420284
vn -0.7874 -0.1838 0.5884
vn -0.2849 -0.9269 0.2444
vn 0.2708 0.0069 0.9626
vn 0.1781 0.0135 -0.9839
vn 0.6355 0.0582 -0.7699
vn 0.4285 0.0284 -0.9031
vn -0.3458 -0.0801 0.9349
vn 0.4964 -0.7403 0.4534
vn 0.3907 -0.0430 -0.9195
vn 0.9415 0.0419 0.3345
vn -0.9350 -0.3219 0.1491
vn 0.2319 -0.0980 0.9678
vn -0.8929 -0.3000 -0.3358
vn -0.3100 -0.0886 0.9466
vn 0.3754 0.0397 -0.9260
vn 0.8989 0.1432 -0.4141
vn -0.2972 -0.0917 -0.9504
vn 0.2320 0.0186 0.9725
vn -0.9611 -0.2173 0.1707
vn -0.9044 -0.2033 -0.3750
vn 0.9193 0.1499 0.3640
vn 0.9086 0.0545 -0.4142
vn -0.2797 -0.1764 -0.9437
vn 0.4516 -0.6861 -0.5704
vn 0.7723 0.0793 0.6303
vn 0.2701 -0.7404 -0.6155
vn -0.8846 -0.2064 -0.4182
vn -0.2892 -0.1884 0.9386
vn -0.8498 0.4061 -0.3360
vn 0.8496 0.3822 0.3635
vn -0.3068 -0.2075 0.9289
vn 0.4319 -0.1012 -0.8962
vn 0.8464 0.3053 -0.4363
vn -0.2944 -0.2323 -0.9270
vn 0.2865 -0.1092 0.9518
vn -0.9614 0.2143 0.1726
vn -0.5552 -0.1023 0.8254
vn 0.7851 0.0814 0.6139
vn -0.3390 -0.0791 0.9374
vn 0.4182 0.0270 -0.9079
vn 0.6590 0.0617 -0.7496
vn 0.1751 0.0042 -0.9845
vn 0.2635 0.0059 0.9646
vn -0.8114 -0.1495 0.5650
vn -0.8950 -0.1766 -0.4097
vn -0.3148 0.9471 -0.0623
vn 0.2522 0.0189 -0.9675
vn 0.0545 -0.9968 -0.0583
vn 0.2115 -0.9773 0.0146
vn 0.4670 0.0609 -0.8822
vn -0.2117 0.9772 -0.0143
vn -0.4619 -0.0851 0.8828
vn -0.8614 -0.1724 0.4778
vn -0.1138 -0.7741 0.6227
vn 0.2881 0.0175 0.9574
vn 0.2154 0.0057 -0.9765
vn 0.5675 0.0714 -0.8203
vn 0.4529 0.0449 -0.8904
vn -0.3614 -0.0931 0.9278
vn 0.3881 -0.7181 0.5777
vn 0.3526 -0.0630 -0.9336
vn 0.9286 0.0513 0.3676
vn -0.9334 -0.3166 0.1691
vn 0.2577 -0.0854 0.9624
vn -0.8755 -0.3094 -0.3713
vn -0.3324 -0.0871 0.9391
vn 0.4055 0.0526 -0.9126
vn 0.8829 0.1476 -0.4459
vn -0.3251 -0.0914 -0.9413
vn 0.2525 0.0268 0.9672
vn -0.9588 -0.2138 0.1870
vn -0.8914 -0.2078 -0.4029
vn 0.9083 0.1544 0.3887
vn 0.9270 0.0439 -0.3725
vn -0.2441 -0.1795 -0.9530
vn 0.4636 -0.6913 -0.5543
vn 0.7353 0.0925 0.6714
vn -0.2865 -0.9321 -0.2216
vn -0.8712 -0.2159 -0.4410
vn -0.2592 -0.1930 0.9464
vn -0.8452 0.4125 -0.3399
vn 0.6662 0.5336 0.5210
vn -0.3102 -0.2146 0.9261
vn 0.4403 -0.1073 -0.8914
vn 0.5632 0.4552 -0.6896
vn 0.1152 0.3246 -0.9388
vn 0.2929 -0.1131 0.9494
vn -0.7785 0.3775 0.5015
vn 0.7710 0.0970 0.6294
vn -0.3440 -0.0900 0.9347
vn 0.4262 0.0404 -0.9037
vn 0.6331 0.0796 -0.7699
vn 0.1802 0.0000 -0.9836
vn 0.2688 0.0143 0.9631
vn -0.7913 -0.1626 0.5894
vn -0.8931 -0.1646 -0.4186
s off
f 19/1/1 42/2/1 47/3/1
f 21/4/2 4/5/2 19/1/2
f 45/6/3 3/7/3 43/8/3
f 44/9/4 2/10/4 48/11/4
f 46/12/5 1/13/5 49/14/5
f 1/13/6 44/9/6 49/14/6
f 42/2/7 6/15/7 45/6/7
f 3/7/8 21/4/8 20/16/8
f 28/17/9 12/18/9 9/19/9
f 8/20/10 33/21/10 27/22/10
f 32/23/11 7/24/11 26/25/11
f 29/26/12 8/20/12 27/22/12
f 30/27/13 23/28/13 32/23/13
f 13/29/14 10/30/14 7/24/14
f 18/31/15 9/19/15 12/18/15
f 22/32/16 18/31/16 12/18/16
f 9/19/17 17/33/17 11/34/17
f 10/30/18 14/35/18 8/20/18
f 23/28/19 13/29/19 7/24/19
f 11/34/20 25/36/20 23/28/20
f 14/35/21 22/32/21 8/20/21
f 12/18/22 33/21/22 22/32/22
f 11/34/23 28/17/23 9/19/23
f 1/13/24 21/4/24 5/37/24
f 3/7/25 46/12/25 43/8/25
f 21/4/26 2/10/26 5/37/26
f 48/11/27 19/1/27 47/3/27
f 29/26/28 7/24/28 10/30/28
f 38/38/29 25/36/29 17/33/29
f 35/39/30 24/40/30 14/35/30
f 13/29/31 37/41/31 16/42/31
f 18/31/32 36/43/32 15/44/32
f 24/40/33 39/45/33 18/31/33
f 36/43/34 17/33/34 15/44/34
f 37/41/35 14/35/35 16/42/35
f 25/36/36 34/46/36 13/29/36
f 52/47/37 54/48/37 55/49/37
f 43/8/38 40/50/38 35/39/38
f 34/46/39 45/6/39 37/41/39
f 49/14/40 36/43/40 39/45/40
f 40/50/41 49/14/41 39/45/41
f 36/43/42 48/11/42 38/38/42
f 37/41/43 43/8/43 35/39/43
f 47/3/44 34/46/44 41/51/44
f 50/52/45 52/47/45 51/53/45
f 56/54/46 52/47/46 55/49/46
f 50/52/47 56/54/47 57/55/47
f 54/48/48 50/52/48 57/55/48
f 54/48/49 48/11/49 47/3/49
f 48/11/50 56/54/50 38/38/50
f 38/38/51 55/49/51 41/51/51
f 55/49/52 47/3/52 41/51/52
f 19/1/53 4/5/53 42/2/53
f 21/4/54 6/15/54 4/5/54
f 45/6/55 6/15/55 3/7/55
f 44/9/56 5/37/56 2/10/56
f 46/12/57 20/16/57 1/13/57
f 1/13/58 5/37/58 44/9/58
f 42/2/59 4/5/59 6/15/59
f 3/7/60 6/15/60 21/4/60
f 28/17/61 31/56/61 12/18/61
f 8/20/62 22/32/62 33/21/62
f 32/23/63 23/28/63 7/24/63
f 29/26/64 10/30/64 8/20/64
f 30/27/65 11/34/65 23/28/65
f 13/29/66 16/42/66 10/30/66
f 18/31/67 15/44/67 9/19/67
f 22/32/68 24/40/68 18/31/68
f 9/19/69 15/44/69 17/33/69
f 10/30/70 16/42/70 14/35/70
f 23/28/71 25/36/71 13/29/71
f 11/34/72 17/33/72 25/36/72
f 14/35/73 24/40/73 22/32/73
f 12/18/74 31/56/74 33/21/74
f 11/34/75 30/27/75 28/17/75
f 1/13/76 20/16/76 21/4/76
f 3/7/77 20/16/77 46/12/77
f 21/4/78 19/1/78 2/10/78
f 48/11/79 2/10/79 19/1/79
f 29/26/80 26/25/80 7/24/80
f 38/38/81 41/51/81 25/36/81
f 35/39/82 40/50/82 24/40/82
f 13/29/83 34/46/83 37/41/83
f 18/31/84 39/45/84 36/43/84
f 24/40/85 40/50/85 39/45/85
f 36/43/86 38/38/86 17/33/86
f 37/41/87 35/39/87 14/35/87
f 25/36/88 41/51/88 34/46/88
f 52/47/37 53/57/37 54/48/37
f 43/8/89 46/12/89 40/50/89
f 34/46/90 42/2/90 45/6/90
f 49/14/91 44/9/91 36/43/91
f 40/50/92 46/12/92 49/14/92
f 36/43/93 44/9/93 48/11/93
f 37/41/94 45/6/94 43/8/94
f 47/3/95 42/2/95 34/46/95
f 50/52/96 53/57/96 52/47/96
f 56/54/46 51/53/46 52/47/46
f 50/52/47 51/53/47 56/54/47
f 54/48/48 53/57/48 50/52/48
f 54/48/49 57/55/49 48/11/49
f 48/11/50 57/55/50 56/54/50
f 38/38/51 56/54/51 55/49/51
f 55/49/52 54/48/52 47/3/52
