# Blender v2.79 (sub 0) OBJ File: 'character.blend'
# www.blender.org
o upperRleg_Cube.006
v 0.184053 1.004860 -0.167225
v 0.197976 1.033987 0.153567
v -0.217578 0.914333 -0.187117
v -0.094184 0.975792 0.202045
v -0.028893 0.957505 -0.225619
v 0.052287 0.972441 0.251661
v 0.230737 1.012368 -0.007109
v -0.207343 0.917578 0.033151
v 0.129269 -0.432036 -0.131238
v 0.140419 -0.410591 0.105166
v -0.107294 -0.507109 0.128493
v -0.183863 -0.494793 -0.137806
v 0.023571 -0.453915 0.187414
v -0.039428 -0.465506 -0.182970
v 0.174567 -0.428369 -0.013316
v -0.190423 -0.491053 0.017759
v 0.080583 -0.226590 -0.084204
v 0.089032 -0.212625 0.070024
v -0.067832 -0.288727 0.062721
v -0.111690 -0.277376 -0.077565
v 0.017609 -0.245741 0.136957
v -0.027685 -0.254074 -0.129333
v 0.124530 -0.226663 -0.007370
v -0.134606 -0.273153 0.014994
v -0.180101 -0.652025 -0.132304
v 0.020367 -0.613070 0.180245
v 0.168299 -0.589128 -0.014008
v -0.188535 -0.648229 0.016042
v 0.123051 0.387449 -0.116004
v 0.133661 0.407398 0.103968
v -0.081561 0.308737 0.121266
v -0.151589 0.320860 -0.119836
v 0.033059 0.363002 0.183201
v -0.026400 0.352063 -0.166368
v 0.168079 0.390368 -0.006298
v -0.161420 0.324697 0.023131
v -0.107280 -0.664231 0.119556
v 0.123156 -0.592367 -0.127222
v -0.040603 -0.624287 -0.178212
v 0.133997 -0.571778 0.099766
vt 0.160259 0.500970
vt 0.160259 0.500970
vt 0.160259 0.500970
vt 0.160260 0.500970
vt 0.160259 0.500970
vt 0.160259 0.500970
vt 0.160260 0.500970
vt 0.160260 0.500970
vt 0.160259 0.500970
vt 0.160259 0.500971
vt 0.160259 0.500970
vt 0.160257 0.500970
vt 0.160259 0.500970
vt 0.160259 0.500970
vt 0.160259 0.500971
vt 0.160260 0.500970
vt 0.160299 0.500960
vt 0.160286 0.500961
vt 0.160252 0.500948
vt 0.160244 0.500967
vt 0.160197 0.500969
vt 0.160244 0.500990
vt 0.160200 0.500989
vt 0.160287 0.500989
vt 0.160259 0.500970
vt 0.160259 0.500970
vt 0.160259 0.500970
vt 0.160259 0.500970
vt 0.160259 0.500970
vt 0.160259 0.500970
vt 0.160259 0.500970
vt 0.160259 0.500970
vt 0.160012 0.500443
vt 0.159389 0.500786
vt 0.160825 0.501564
vt 0.160780 0.500451
vt 0.159445 0.501129
vt 0.159619 0.501557
vt 0.160207 0.501650
vt 0.161116 0.500966
vn -0.7370 0.3135 0.5988
vn 0.8900 0.2912 -0.3509
vn -0.3438 0.3550 -0.8693
vn 0.5812 0.2861 0.7618
vn 0.9443 0.2272 0.2381
vn -0.6907 0.1516 0.7071
vn -0.9403 0.2378 -0.2436
vn 0.2444 0.2257 -0.9430
vn 0.3964 -0.0568 -0.9163
vn -0.9968 -0.0438 -0.0674
vn -0.4540 -0.0560 0.8892
vn 0.9026 -0.0644 0.4257
vn 0.6400 -0.0879 0.7634
vn -0.5032 -0.0943 -0.8590
vn 0.8648 -0.0854 -0.4947
vn -0.5931 -0.0920 0.7998
vn -0.7887 -0.0350 0.6137
vn 0.9284 -0.0446 -0.3689
vn -0.3051 -0.0406 -0.9515
vn 0.5873 -0.0505 0.8078
vn 0.9551 -0.0385 0.2938
vn -0.3991 -0.0332 0.9163
vn -0.9991 -0.0115 -0.0419
vn 0.3026 -0.0308 -0.9526
vn -0.8140 -0.0850 0.5747
vn 0.9193 -0.1219 -0.3741
vn -0.3138 -0.1413 -0.9389
vn 0.5896 -0.1237 0.7981
vn 0.9460 -0.0949 0.3099
vn -0.3213 -0.0957 0.9421
vn -0.9949 -0.0759 -0.0664
vn 0.3372 -0.0903 -0.9371
vn -0.5511 0.1516 0.8205
vn 0.8460 0.2241 -0.4837
vn -0.5562 0.2332 -0.7976
vn 0.5069 0.2167 0.8343
vn 0.8880 0.2934 0.3541
vn -0.4960 0.3314 0.8026
vn -0.9440 0.3266 -0.0477
vn 0.3076 0.2810 -0.9091
vn 0.3337 -0.0718 -0.9399
vn -0.9683 -0.0813 -0.2360
vn -0.6269 -0.0902 0.7738
vn 0.9473 -0.0851 0.3088
vn 0.6995 -0.0718 0.7110
vn -0.3354 -0.0567 -0.9404
vn 0.9238 -0.0645 -0.3774
vn -0.7783 -0.0434 0.6263
vn -0.8007 -0.0162 0.5988
vn 0.9333 -0.0348 -0.3574
vn -0.2934 -0.0265 -0.9556
vn 0.5889 -0.0482 0.8068
vn 0.9579 -0.0477 0.2832
vn -0.4118 -0.0518 0.9098
vn -0.9981 -0.0258 -0.0561
vn 0.2994 -0.0353 -0.9535
vn -0.7793 -0.0709 0.6226
vn 0.9567 -0.0967 -0.2744
vn -0.1777 -0.0966 -0.9793
vn 0.6436 -0.1055 0.7581
vn 0.9700 -0.1165 0.2134
vn -0.4289 -0.1166 0.8958
vn -0.9933 -0.1050 0.0477
vn 0.2850 -0.1072 -0.9525
s off
f 19/1/1 16/2/1 11/3/1
f 17/4/2 15/5/2 9/6/2
f 20/7/3 14/8/3 12/9/3
f 21/10/4 10/11/4 18/12/4
f 23/13/5 10/11/5 15/5/5
f 19/1/6 13/14/6 21/10/6
f 20/7/7 16/2/7 24/15/7
f 22/16/8 9/6/8 14/8/8
f 34/17/9 17/4/9 22/16/9
f 32/18/10 24/15/10 36/19/10
f 31/20/11 21/10/11 33/21/11
f 35/22/12 18/12/12 23/13/12
f 33/21/13 18/12/13 30/23/13
f 32/18/14 22/16/14 20/7/14
f 29/24/15 23/13/15 17/4/15
f 31/20/16 24/15/16 19/1/16
f 11/3/17 28/25/17 37/26/17
f 9/6/18 27/27/18 38/28/18
f 12/9/19 39/29/19 25/30/19
f 13/14/20 40/31/20 10/11/20
f 15/5/21 40/31/21 27/27/21
f 11/3/22 26/32/22 13/14/22
f 12/9/23 28/25/23 16/2/23
f 14/8/24 38/28/24 39/29/24
f 8/33/25 31/20/25 4/34/25
f 1/35/26 35/22/26 29/24/26
f 3/36/27 34/17/27 32/18/27
f 6/37/28 30/23/28 2/38/28
f 7/39/29 30/23/29 35/22/29
f 4/34/30 33/21/30 6/37/30
f 8/33/31 32/18/31 36/19/31
f 5/40/32 29/24/32 34/17/32
f 19/1/33 24/15/33 16/2/33
f 17/4/34 23/13/34 15/5/34
f 20/7/35 22/16/35 14/8/35
f 21/10/36 13/14/36 10/11/36
f 23/13/37 18/12/37 10/11/37
f 19/1/38 11/3/38 13/14/38
f 20/7/39 12/9/39 16/2/39
f 22/16/40 17/4/40 9/6/40
f 34/17/41 29/24/41 17/4/41
f 32/18/42 20/7/42 24/15/42
f 31/20/43 19/1/43 21/10/43
f 35/22/44 30/23/44 18/12/44
f 33/21/45 21/10/45 18/12/45
f 32/18/46 34/17/46 22/16/46
f 29/24/47 35/22/47 23/13/47
f 31/20/48 36/19/48 24/15/48
f 11/3/49 16/2/49 28/25/49
f 9/6/50 15/5/50 27/27/50
f 12/9/51 14/8/51 39/29/51
f 13/14/52 26/32/52 40/31/52
f 15/5/53 10/11/53 40/31/53
f 11/3/54 37/26/54 26/32/54
f 12/9/55 25/30/55 28/25/55
f 14/8/56 9/6/56 38/28/56
f 8/33/57 36/19/57 31/20/57
f 1/35/58 7/39/58 35/22/58
f 3/36/59 5/40/59 34/17/59
f 6/37/60 33/21/60 30/23/60
f 7/39/61 2/38/61 30/23/61
f 4/34/62 31/20/62 33/21/62
f 8/33/63 3/36/63 32/18/63
f 5/40/64 1/35/64 29/24/64
