# Blender v2.79 (sub 0) OBJ File: 'character.blend'
# www.blender.org
o upperLarm_Cube.003
v -0.071372 -0.362063 0.098054
v 0.143718 -0.315654 0.115392
v 0.049248 -0.340212 -0.134026
v 0.049248 -0.340212 0.135545
v -0.048223 -0.357845 -0.105734
v 0.144381 -0.319991 -0.099461
v -0.085952 -0.364770 0.000760
v 0.184448 -0.315654 0.000760
v -0.176198 0.433342 -0.118927
v -0.197400 0.429479 0.108556
v 0.041167 0.510547 -0.057824
v 0.069234 0.495890 0.069791
v -0.066444 0.453212 -0.144840
v -0.066444 0.453212 0.142895
v -0.082999 -0.072392 -0.104505
v 0.105435 -0.035537 -0.098760
v -0.104201 -0.076256 0.094136
v 0.104828 -0.031565 0.110016
v 0.012289 -0.055150 -0.130418
v 0.012289 -0.055150 0.128475
v -0.129599 0.180475 -0.111716
v 0.073301 0.219958 -0.105971
v -0.150801 0.176611 0.101346
v 0.072694 0.223930 0.117227
v -0.027078 0.199031 -0.137629
v -0.027078 0.199031 0.135685
v -0.210754 0.426999 -0.000973
v 0.077866 0.479425 -0.000973
v -0.117556 -0.078735 -0.000972
v 0.142134 -0.031565 -0.000972
v 0.110000 0.223930 -0.000972
v -0.164155 0.174132 -0.000972
v -0.065470 -0.286427 0.088143
v 0.131536 -0.243919 0.104024
v 0.045009 -0.266413 -0.124425
v 0.045009 -0.266412 0.122482
v -0.044268 -0.282563 -0.098511
v 0.132143 -0.247892 -0.092766
v -0.078825 -0.288906 -0.000971
v 0.168842 -0.243919 -0.000971
vt 0.188787 0.420300
vt 0.188760 0.420266
vt 0.188796 0.420272
vt 0.188825 0.420217
vt 0.188864 0.420247
vt 0.188832 0.420248
vt 0.188882 0.420217
vt 0.188888 0.420268
vt 0.188817 0.420323
vt 0.188747 0.420312
vt 0.188917 0.420310
vt 0.188858 0.420319
vt 0.188885 0.420295
vt 0.188870 0.420349
vt 0.188925 0.420260
vt 0.189793 0.418776
vt 0.188767 0.419989
vt 0.188398 0.418716
vt 0.186967 0.419787
vt 0.188444 0.420408
vt 0.186912 0.421011
vt 0.189169 0.420396
vt 0.190806 0.419755
vt 0.190575 0.420897
vt 0.187950 0.421861
vt 0.188961 0.420560
vt 0.189381 0.421668
vt 0.188491 0.420202
vt 0.186349 0.412461
vt 0.178858 0.416760
vt 0.197708 0.423965
vt 0.189980 0.430055
vt 0.184267 0.427905
vt 0.198733 0.417688
vt 0.178459 0.426474
vt 0.193526 0.413103
vt 0.189209 0.420181
vt 0.188673 0.420588
vt 0.189021 0.419993
vt 0.188802 0.420355
vn 0.1600 0.1810 0.9704
vn -0.9848 0.0958 0.1449
vn -0.9411 0.0809 -0.3282
vn 0.9216 0.2084 0.3275
vn -0.3178 0.1475 0.9366
vn 0.3117 0.1402 -0.9398
vn 0.9090 0.1888 -0.3716
vn -0.2949 0.1066 -0.9496
vn -0.9742 -0.1833 0.1316
vn 0.1831 -0.0047 0.9831
vn -0.2337 -0.0637 -0.9702
vn 0.9371 0.1085 -0.3317
vn 0.2987 0.0106 -0.9543
vn -0.2556 -0.0669 0.9645
vn -0.2421 -0.0650 0.9681
vn 0.5516 0.1954 -0.8109
vn 0.8679 0.1731 -0.4655
vn -0.2188 -0.0615 -0.9738
vn 0.4286 0.1605 0.8891
vn -0.9753 -0.1832 0.1231
vn -0.9410 -0.1816 -0.2855
vn 0.9930 0.0324 0.1136
vn 0.9478 0.1108 0.2991
vn -0.9358 -0.1811 -0.3024
vn 0.9422 0.1096 0.3167
vn -0.9296 -0.1805 -0.3213
vn -0.9728 -0.1833 0.1414
vn 0.1963 -0.0030 0.9805
vn -0.2507 -0.0662 -0.9658
vn 0.9294 0.1069 -0.3532
vn 0.3192 0.0134 -0.9476
vn -0.2705 -0.0691 0.9602
vn -0.9736 -0.1794 0.1414
vn 0.1950 0.0024 0.9808
vn -0.2493 -0.0735 -0.9656
vn 0.9283 0.1167 -0.3531
vn 0.3175 0.0223 -0.9480
vn -0.2691 -0.0770 0.9600
vn -0.2542 -0.0743 0.9643
vn 0.2971 0.0189 -0.9546
vn 0.9360 0.1177 -0.3316
vn -0.2324 -0.0705 -0.9701
vn 0.1819 0.0003 0.9833
vn -0.9749 -0.1797 0.1316
vn -0.9374 -0.1727 -0.3024
vn 0.9468 0.1191 0.2988
vn 0.9412 0.1184 0.3164
vn -0.9313 -0.1716 -0.3213
vn 0.9357 0.1177 0.3325
vn -0.9252 -0.1705 -0.3389
vn -0.9722 -0.1792 0.1507
vn 0.2075 0.0044 0.9782
vn -0.2652 -0.0763 -0.9612
vn 0.9206 0.1158 -0.3730
vn 0.3366 0.0254 -0.9413
vn -0.2827 -0.0794 0.9559
s off
f 2/1/1 36/2/1 4/3/1
f 33/4/2 7/5/2 1/6/2
f 39/7/3 5/8/3 7/5/3
f 8/9/4 34/10/4 2/1/4
f 4/3/5 33/4/5 1/6/5
f 35/11/6 6/12/6 3/13/6
f 38/14/7 8/9/7 6/12/7
f 37/15/8 3/13/8 5/8/8
f 32/16/9 17/17/9 23/18/9
f 26/19/10 18/20/10 24/21/10
f 19/22/11 21/23/11 25/24/11
f 31/25/12 16/26/12 22/27/12
f 16/26/13 25/24/13 22/27/13
f 23/18/14 20/28/14 26/19/14
f 10/29/15 26/19/15 14/30/15
f 22/27/16 13/31/16 11/32/16
f 28/33/17 22/27/17 11/32/17
f 25/24/18 9/34/18 13/31/18
f 14/30/19 24/21/19 12/35/19
f 27/36/20 23/18/20 10/29/20
f 21/23/21 27/36/21 9/34/21
f 24/21/22 28/33/22 12/35/22
f 18/20/23 31/25/23 24/21/23
f 15/37/24 32/16/24 21/23/24
f 34/10/25 30/38/25 18/20/25
f 37/15/26 29/39/26 15/37/26
f 29/39/27 33/4/27 17/17/27
f 20/28/28 34/10/28 18/20/28
f 35/11/29 15/37/29 19/22/29
f 30/38/30 38/14/30 16/26/30
f 38/14/31 19/22/31 16/26/31
f 17/17/32 36/2/32 20/28/32
f 2/1/1 34/10/1 36/2/1
f 33/4/2 39/7/2 7/5/2
f 39/7/3 37/15/3 5/8/3
f 8/9/4 40/40/4 34/10/4
f 4/3/5 36/2/5 33/4/5
f 35/11/6 38/14/6 6/12/6
f 38/14/7 40/40/7 8/9/7
f 37/15/8 35/11/8 3/13/8
f 32/16/33 29/39/33 17/17/33
f 26/19/34 20/28/34 18/20/34
f 19/22/35 15/37/35 21/23/35
f 31/25/36 30/38/36 16/26/36
f 16/26/37 19/22/37 25/24/37
f 23/18/38 17/17/38 20/28/38
f 10/29/39 23/18/39 26/19/39
f 22/27/40 25/24/40 13/31/40
f 28/33/41 31/25/41 22/27/41
f 25/24/42 21/23/42 9/34/42
f 14/30/43 26/19/43 24/21/43
f 27/36/44 32/16/44 23/18/44
f 21/23/45 32/16/45 27/36/45
f 24/21/46 31/25/46 28/33/46
f 18/20/47 30/38/47 31/25/47
f 15/37/48 29/39/48 32/16/48
f 34/10/49 40/40/49 30/38/49
f 37/15/50 39/7/50 29/39/50
f 29/39/51 39/7/51 33/4/51
f 20/28/52 36/2/52 34/10/52
f 35/11/53 37/15/53 15/37/53
f 30/38/54 40/40/54 38/14/54
f 38/14/55 35/11/55 19/22/55
f 17/17/56 33/4/56 36/2/56
